<svg version="1" xmlns="http://www.w3.org/2000/svg" width="853.333" height="853.333" viewBox="0 0 640.000000 640.000000"><path d="M352.5 65.2c-4.1 2.4-6.4 6.5-8.5 14.8-1 4.2-2.5 9.4-7.9 27.5-1.2 3.9-2.3 7.9-2.6 9-.2 1.1-3 10.5-6.1 21-3.1 10.4-6.9 23.7-8.5 29.5-1.6 5.8-3.2 11.2-3.6 12-.3.8-.7 2-.8 2.5-.2.6-3 10.7-6.5 22.5-3.4 11.8-8.1 28.4-10.6 36.8-2.4 8.5-4.6 15.7-4.8 16.1-.3.4-.7 1.8-1 3.2-.8 4-1.3 5.7-6.6 23.4-2.8 9.3-5.3 17.8-5.5 18.9-.2 1-1.2 4.4-2.1 7.5-1 3.1-1.8 5.8-1.9 6.1-.1.3-.7 2.5-1.4 5s-1.5 5.2-1.7 6c-.1.8-1.2 4.6-2.4 8.5-1.2 3.8-3.3 11-4.6 16-1.4 4.9-2.9 9.9-3.3 11-1 2.2-3.6 11.7-3.4 12.5 0 .3-.4 1.6-.9 3s-1.2 3.6-1.5 5c-.2 1.3-.9 3-1.5 3.7-.6.7-.8 1.3-.4 1.3.3 0 .1 1.2-.5 2.7-.6 1.6-1.3 3.7-1.5 4.8-.4 1.9-2.8 10.4-4.4 15.5-.4 1.4-1.5 5-2.4 8-.8 3-4.7 16.5-8.6 30-3.9 13.5-8.9 30.8-11.1 38.5-2.2 7.7-4.2 14.6-4.4 15.3-.3.7-.5 1.4-.5 1.7-.1.3-.6 1.9-1.1 3.7-2.5 8.1-10.1 34.5-10.5 36.8-.7 3.3 2.2 9.3 5.4 11.2 1.5.9 7 2.8 12.2 4.2 14.9 4.2 23.2 6.7 27.3 8.2 2 .8 3.7 1.1 3.7.9 0-.3.8-.1 1.8.4 1.1.6 3 1.2 4.3 1.5 5.2 1.1 9.7 2.4 10.6 2.9.5.3 3 .9 5.6 1.2 3.8.5 5.4.2 8.1-1.5 4.2-2.5 4.4-3.1 14.1-36.5 7.3-25 8-27.4 8.9-31.3.3-.9 1.4-4.6 2.5-8.1 1.2-3.5 2.3-7.4 2.6-8.5.5-2.5 1.3-5.1 10.5-36.6 7.4-25.2 11.7-40.3 12.4-43.1.3-.9 2.1-7.2 4.1-14 2.1-6.8 3.8-12.9 3.9-13.4.1-.6 1-3.7 2-7s2-6.7 2.2-7.5c.2-.8 1.2-4.4 2.3-8 6.6-22.3 15.6-53.2 16.6-57 .7-2.5 2.3-7.9 3.6-12 1.2-4.1 2.3-7.7 2.4-8 1-4.5 2.9-11.7 3.4-12.5.3-.6.6-1.5.8-2 .4-1.7 3.4-12.9 3.7-14 .2-.6.4-1.2.4-1.5 0-.3.6-1.9 1.2-3.5.7-1.7 1.4-3.9 1.6-5 .4-1.9 2.8-10.4 4.4-15.5.4-1.4 1.5-5 2.4-8 .8-3 4.7-16.5 8.6-30 3.9-13.5 8.9-30.8 11.1-38.5 2.2-7.7 4.3-14.7 4.6-15.5.3-.8.8-2.4 1-3.5.2-1.1 1-4.2 1.9-6.8.9-2.6 1.7-5.3 1.8-6 .1-.7 1.2-4.4 2.4-8.2 5-16.1 5.4-19.1 3.8-24-1.3-3.7-6.9-6.3-25.1-11.5-9.9-2.8-21.8-6.3-26.5-7.6-18-5.3-22.5-6-25.5-4.2zM151.5 173.9c-1.1.5-4.2 3-7 5.5-21.6 20.2-27.3 25.5-30.5 28.6-2 1.9-8.3 7.8-13.9 13s-12.4 11.5-15 14c-2.6 2.5-10.8 10.1-18.1 17-7.4 6.9-15.3 14.3-17.6 16.5-8.2 7.7-25.9 24.3-28.9 27-9.6 8.8-17.6 16.8-19 18.9-2.2 3.3-1.3 10.1 1.7 13.4 2.2 2.3 7.6 7.6 15.9 15.3 6.5 6 28.1 26.3 31.9 29.9 2 1.9 8.8 8.2 15 14 6.2 5.8 13.4 12.5 16 15 26.9 25.4 48 45.1 63.3 59.2 5.3 5 9.6 6.6 14.3 5.4 2.7-.7 4.3-2.3 18.9-17.8 4.4-4.7 13-13.8 19-20.2 12.6-13.4 14.4-16.2 13.9-21.4-.3-3.1-1.5-4.8-7.2-10.2-7.7-7.3-17.3-15.8-21.4-19-1.5-1.2-4-3.3-5.5-4.8-2.4-2.3-11.6-10.5-19.7-17.5-2.2-2-10.8-9.5-18.5-16.2-2.5-2.2-5.8-5.2-7.4-6.7-1.6-1.5-4.7-4.2-6.9-6-2.3-1.8-4.7-3.9-5.5-4.6-1.4-1.5-1.8-4.2-.5-4.2.4 0 2.6-1.7 4.9-3.8 2.3-2 6.2-5.6 8.8-8 2.6-2.3 4.8-4.2 5-4.2.3 0 1.7-1.2 3.3-2.8 2.8-2.6 10.2-9.2 21.2-18.7 3-2.6 6-5.2 6.5-5.9.6-.6 3.9-3.6 7.5-6.6 3.5-3 7.2-6.2 8-7 .9-.8 4.7-4.2 8.5-7.5s8-7.1 9.4-8.4c1.4-1.3 3.3-2.8 4.1-3.5 3.4-2.4 5.7-7.1 5.5-10.8-.4-5.2 1-3.5-27.1-33.3-6.2-6.6-13.4-14.3-16.1-17.1-2.6-2.9-5.8-5.7-7-6.3-2.5-1.3-6.9-1.3-9.8-.2zM478.5 174.1c-2.2 1.3-6 5.1-23.5 23.9-6.3 6.7-14.5 15.5-18.2 19.4-7.3 7.7-8.6 10.2-8.2 15.6.3 3.9 2.9 6.6 23.4 24.5 10.8 9.4 14.7 12.9 20.4 18 .6.5 6.5 5.7 13.1 11.5s12.2 10.7 12.5 11c.3.3 5.9 5.3 12.6 11.2 13.2 11.5 12.9 10.8 6.4 16.2-3.5 2.9-14.4 12.4-18.4 16.1-1.2 1.1-4.6 4-7.5 6.5-2.9 2.5-7 6.1-9.1 8-2.1 1.9-5.1 4.6-6.7 6-1.6 1.4-6.2 5.4-10.2 9-4.1 3.6-8.3 7.3-9.5 8.3-9.4 8.1-14.7 12.8-18.6 16.4-2.5 2.4-4.8 4.3-5.1 4.3-.4 0-1.4 1.8-2.2 3.9-2.8 6.8-1.4 9.8 10 21.7 3.2 3.3 9.9 10.4 14.8 15.8 22.9 24.8 25.1 26.5 31.6 25.2 3.9-.7 5.2-1.8 21.2-16.9 7.3-6.9 14.8-14 16.8-15.8 2-1.9 8.9-8.4 15.4-14.4 6.4-6.1 13.3-12.5 15.4-14.4 2-1.9 9.6-9.1 17-16s15.2-14.3 17.5-16.4c15.4-14.4 26.6-24.9 29.6-27.7 12.1-11.1 20.1-19.5 20.6-21.6 1.3-5.1-.4-9-6.9-15.2-11.3-10.8-22.1-21-43.1-40.7-1.8-1.7-8.8-8.2-15.6-14.5-6.7-6.3-15.1-14.2-18.6-17.5-3.4-3.3-10.8-10.3-16.4-15.5-5.7-5.2-12.4-11.5-15-14-2.6-2.5-8.9-8.3-13.9-13-5.1-4.7-11.1-10.3-13.4-12.6-2.3-2.3-5.3-4.8-6.7-5.6-3.1-1.8-8.9-2.2-11.5-.7z"/></svg>